# xmcd
#
# Track frame offsets:
#	150
#	15268
#	30200
#	49894
#	69524
#	86152
#	101401
#	119189
#	135849
#	154544
#	173737
#	193884
#	210124
#	225016
#	240923
#	260862
#	278840
#	295868
#	311280
#	333233
#
# Disc length: 4640 seconds
#
# Revision: 1
# Processed by: cddbd v1.5.2PL0 Copyright (c) Steve Scherf et al.
# Submitted via: audiograbber 1.80
#
DISCID=fd121e14
DTITLE=Danske fodboldhits - cd 2
DYEAR=1900
DGENRE=
TTITLE0=lmfao - sexy and i know it
TTITLE1=aura dione - geronimo
TTITLE2=bloodhound gang - the bad touch
TTITLE3=lionel richie - all night long
TTITLE4=alphabeat - the spell
TTITLE5=maroon 5 feat. christina aguilera - moves like jagger
TTITLE6=donna summer - hot stuff
TTITLE7=shania twain - that don't impress me much
TTITLE8=medina - kl. 10
TTITLE9=agnes - release me
TTITLE10=kool and the gang - fresh
TTITLE11=flemming bamse jørgensen - alice
TTITLE12=johnny deluxe - drenge som mig
TTITLE13=hej matematik - party i provinsen
TTITLE14=robert palmer - addicted to love
TTITLE15=lady gaga - poker face
TTITLE16=burhan g - jeg vil ha dig for mig selv
TTITLE17=billy ray cyrus - achy breaky heart
TTITLE18=the black eyed peas - i got a feeling
TTITLE19=shu-bi-dua - danmark
EXTD=
EXTT0=
EXTT1=
EXTT2=
EXTT3=
EXTT4=
EXTT5=
EXTT6=
EXTT7=
EXTT8=
EXTT9=
EXTT10=
EXTT11=
EXTT12=
EXTT13=
EXTT14=
EXTT15=
EXTT16=
EXTT17=
EXTT18=
EXTT19=
PLAYORDER=
